<svg enable-background="new 0 0 140 140" height="512" viewBox="0 0 140 140" width="512" xmlns="http://www.w3.org/2000/svg"><circle cx="70" cy="70" fill="#344d5b" r="64"/><path d="m101.8766556 44.7964554c-.5899658-.5898438-1.2299805-1.1401367-1.9099731-1.6401367l-.0400391-.0297852-13.4400024-13.449707c-5.1699829-5.75-12.6599731-9.3603516-20.9899902-9.3603516-14.3399658 0-26.1699829 10.7001953-27.9799805 24.550293-10.8200073.5498047-19.4299927 9.5-19.4299927 20.4697266 0 4.7700195 1.6300049 9.1601562 4.3699951 12.6401367l.0100098.0097656c1.0100098 1.2900391 2.1699829 2.4599609 3.4699707 3.4702148l19.5700073 19.5698242h-4.9799805l32.8815918 32.8818283c31.5914307-1.6582031 57.1134109-26.2226486 60.2637405-57.3964767l-31.745369-31.7451172z" opacity=".1"/><path d="m109.1945496 60.3861771c-1.6639633 0-1.5998154.0878181-2.9224777-.0315971.2955246-1.2374039.4686127-2.5226631.4686127-3.8506775 0-8.3778992-6.2278976-15.283741-14.3030701-16.3863907-3.583725-11.4711685-14.2907562-19.7970257-26.9431-19.7970257-14.3395462 0-26.1726913 10.6965733-27.9765167 24.5445042-10.8250561.5524864-19.4322681 9.5042458-19.4322681 20.4666061 0 11.3182983 9.1754971 20.4940262 20.4941425 20.4940262h70.6146774c7.0247955 0 12.7197189-5.6949234 12.7197189-12.7197266 0-7.0247955-5.6949234-12.7197189-12.7197189-12.7197189z" fill="#ededed"/><path d="m78.8085403 30.356308c-3.4867249-1.8047581-7.1638489-2.8753433-10.8662949-3.0765438-1.8481979-.0710926-3.6967545-.0125465-5.4905891.3419933-.9059792.1212769-1.7816391.3856716-2.6679878.5924473-.8553276.3131828-1.7387733.5496979-2.5537949.9613895-1.6867294.6853809-3.2567177 1.636549-4.7306328 2.7108536-1.5161972 1.0357361-2.79356 2.3702545-4.0304985 3.7400818l-.8865776 1.0724487c-.2620735.3819542-.5206566.7671585-.798645 1.144001-.2901802.3708038-.5147324.7792435-.7543831 1.1830368-.2267532.408905-.5070648.7978287-.6943245 1.2295036-.9181747 1.6639633-1.5351334 3.4733658-2.1546478 5.3468933-.0101051-1.9604187.2578888-3.9589424.8584671-5.8807945.6463509-1.8935089 1.4583511-3.7888718 2.65765-5.4444733 2.2996216-3.3655643 5.5953712-6.1261349 9.4087563-7.7236519 3.7891083-1.6523457 8.0676231-2.1258392 12.0860405-1.4790268 4.0261993.6472779 7.8254089 2.5082589 10.6174621 5.2818414z" fill="#ededed"/><path d="m67.8342743 101.0278702v-26.4897232h-17.2969589v26.4897232h-10.0119973l18.6603775 18.6601867 18.6603814-18.6601867z" fill="#4da0dc"/><path d="m72.1657257 70.6233749v26.4897232h17.2969589v-26.4897232h10.0120011l-18.6603852-18.6601829-18.6603775 18.6601829z" fill="#dd584d"/></svg>