<?xml version="1.0" encoding="iso-8859-1"?>
<!-- Generator: Adobe Illustrator 19.0.0, SVG Export Plug-In . SVG Version: 6.00 Build 0)  -->
<svg version="1.1" id="Layer_1" xmlns="http://www.w3.org/2000/svg" xmlns:xlink="http://www.w3.org/1999/xlink" x="0px" y="0px"
	 viewBox="0 0 512 512" style="enable-background:new 0 0 512 512;" xml:space="preserve">
<path style="fill:#FE834D;" d="M416.681,84.426H384l-177.021,32.681v65.362h242.383v-65.362
	C449.362,99.132,434.655,84.426,416.681,84.426z"/>
<path style="fill:#FEA680;" d="M416.681,117.106H206.979V84.426H384C401.974,84.426,416.681,99.132,416.681,117.106z"/>
<path style="fill:#FFC1A6;" d="M416.681,149.787H384v256h32.681c17.974,0,32.681-14.706,32.681-32.681V182.468
	C449.362,164.494,434.655,149.787,416.681,149.787z"/>
<path style="fill:#FFDBCC;" d="M384,149.787H228.766V84.426c0-17.974-14.706-32.681-32.681-32.681H40.851
	c-17.974,0-32.681,14.706-32.681,32.681v288.681c0,17.974,14.706,32.681,32.681,32.681H384c17.974,0,32.681-14.706,32.681-32.681
	V182.468C416.681,164.494,401.974,149.787,384,149.787z"/>
<path style="fill:#FE5F1A;" d="M394.894,242.383v217.872c60.165,0,108.936-48.771,108.936-108.936S455.059,242.383,394.894,242.383z
	"/>
<path style="fill:#FE834D;" d="M394.894,242.383c42.115,0,76.255,48.771,76.255,108.936s-34.141,108.936-76.255,108.936
	c-60.165,0-108.936-48.771-108.936-108.936S334.728,242.383,394.894,242.383z"/>
<path style="fill:#FFFFFF;" d="M444.963,378.28l-26.961-26.961l26.961-26.961c6.381-6.381,6.381-16.727,0-23.109
	c-6.382-6.381-16.727-6.381-23.109,0l-26.961,26.961l-26.961-26.961c-6.382-6.381-16.727-6.381-23.109,0
	c-6.382,6.382-6.382,16.727,0,23.109l26.961,26.961l-26.961,26.961c-6.382,6.381-6.382,16.727,0,23.109
	c6.381,6.381,16.727,6.381,23.109,0l26.961-26.961l26.961,26.961c6.381,6.381,16.727,6.381,23.109,0
	C451.344,395.007,451.344,384.661,444.963,378.28z"/>
<path d="M264.177,397.617H40.851c-13.516,0-24.511-10.996-24.511-24.511V84.426c0-13.515,10.995-24.511,24.511-24.511h155.234
	c13.516,0,24.511,10.996,24.511,24.511v65.362c0,4.512,3.658,8.17,8.17,8.17h187.915c13.516,0,24.511,10.996,24.511,24.511v38.134
	c0,4.512,3.658,8.17,8.17,8.17c4.512,0,8.17-3.658,8.17-8.17V117.106c0-22.525-18.325-40.851-40.851-40.851H261.447
	c-4.512,0-8.17,3.658-8.17,8.17s3.658,8.17,8.17,8.17h155.234c13.516,0,24.511,10.996,24.511,24.511v32.703
	c-6.832-5.141-15.321-8.192-24.511-8.192H236.936V84.426c0-22.525-18.325-40.851-40.851-40.851H40.851
	C18.325,43.574,0,61.901,0,84.426v288.681c0,22.525,18.325,40.851,40.851,40.851h223.326c4.512,0,8.17-3.658,8.17-8.17
	C272.347,401.275,268.689,397.617,264.177,397.617z"/>
<circle cx="106.213" cy="149.787" r="8.17"/>
<circle cx="73.532" cy="117.106" r="8.17"/>
<path d="M394.894,234.213c-64.573,0-117.106,52.533-117.106,117.106s52.533,117.106,117.106,117.106S512,415.892,512,351.319
	S459.467,234.213,394.894,234.213z M394.894,452.085c-55.563,0-100.766-45.203-100.766-100.766s45.203-100.766,100.766-100.766
	S495.66,295.756,495.66,351.319S450.457,452.085,394.894,452.085z"/>
<path d="M450.74,295.473c-4.63-4.63-10.785-7.179-17.332-7.179c-6.547,0-12.702,2.549-17.332,7.179l-21.183,21.183l-21.183-21.183
	c-4.63-4.63-10.785-7.179-17.332-7.179s-12.703,2.549-17.332,7.179c-9.557,9.557-9.557,25.107,0,34.664l21.183,21.183
	l-21.183,21.184c-9.557,9.557-9.557,25.107,0,34.664c4.63,4.63,10.785,7.179,17.332,7.179s12.702-2.549,17.332-7.179l21.183-21.184
	l21.183,21.183c4.63,4.63,10.785,7.179,17.332,7.179c6.547,0,12.703-2.549,17.332-7.179c9.557-9.557,9.557-25.107,0-34.664
	l-21.183-21.183l21.183-21.184C460.297,320.58,460.297,305.03,450.74,295.473z M439.186,318.582l-26.961,26.961
	c-3.191,3.191-3.191,8.363,0,11.554l26.961,26.961c3.185,3.185,3.185,8.368,0,11.555c-1.544,1.544-3.595,2.393-5.778,2.393
	c-2.182,0-4.234-0.85-5.777-2.393l-26.961-26.961c-1.532-1.532-3.61-2.393-5.777-2.393c-2.167,0-4.245,0.861-5.777,2.393
	l-26.961,26.961c-1.544,1.544-3.595,2.393-5.777,2.393c-2.182,0-4.234-0.85-5.778-2.393c-3.185-3.185-3.185-8.368,0-11.555
	l26.961-26.961c3.191-3.191,3.191-8.363,0-11.554l-26.961-26.961c-3.185-3.185-3.185-8.368,0-11.555
	c1.544-1.544,3.595-2.393,5.778-2.393c2.182,0,4.234,0.85,5.777,2.393l26.961,26.961c1.532,1.532,3.61,2.393,5.777,2.393
	c2.167,0,4.245-0.861,5.777-2.393l26.961-26.961c1.544-1.544,3.595-2.393,5.777-2.393c2.182,0,4.234,0.85,5.778,2.393
	C442.371,310.213,442.371,315.396,439.186,318.582z"/>
<g>
</g>
<g>
</g>
<g>
</g>
<g>
</g>
<g>
</g>
<g>
</g>
<g>
</g>
<g>
</g>
<g>
</g>
<g>
</g>
<g>
</g>
<g>
</g>
<g>
</g>
<g>
</g>
<g>
</g>
</svg>
