<svg height="394pt" viewBox="0 -8 394 394" width="394pt" xmlns="http://www.w3.org/2000/svg"><path d="m292.476562 48.902344h-79.675781c-1.015625-.003906-1.984375-.429688-2.667969-1.179688l-28.914062-31.628906c-9.378906-10.242188-22.621094-16.078125-36.507812-16.09375h-95.253907c-27.300781.03125-49.425781 22.15625-49.457031 49.457031v278.214844c.03125 27.300781 22.15625 49.425781 49.457031 49.457031h295.085938c27.300781-.03125 49.425781-22.15625 49.457031-49.457031v-178.214844c-.03125-27.300781-22.15625-49.425781-49.457031-49.457031h-2.609375v-1.640625c-.03125-27.300781-22.15625-49.425781-49.457032-49.457031zm-238.550781 314.226562h-4.46875c-19.574219-.023437-35.433593-15.886718-35.457031-35.457031v-278.214844c.023438-19.574219 15.882812-35.433593 35.457031-35.457031h95.253907c9.953124.011719 19.449218 4.195312 26.171874 11.535156l28.910157 31.636719c3.339843 3.644531 8.054687 5.722656 13 5.730469h79.679687c19.574219.023437 35.433594 15.882812 35.457032 35.457031v1.640625h-189.085938c-27.300781.03125-49.425781 22.15625-49.457031 49.460938v178.210937c-.023438 19.570313-15.886719 35.433594-35.460938 35.457031zm290.617188-249.128906c19.574219.023438 35.433593 15.882812 35.457031 35.457031v178.214844c-.023438 19.570313-15.882812 35.433594-35.457031 35.457031h-256.167969c9.601562-9.296875 15.015625-22.09375 15.011719-35.457031v-178.214844c.019531-19.574219 15.882812-35.433593 35.457031-35.457031zm0 0"/><path d="m191.691406 245.570312h43v43c0 3.867188 3.136719 7 7 7 3.867188 0 7-3.132812 7-7v-43h43c3.867188 0 7-3.132812 7-7 0-3.867187-3.132812-7-7-7h-43v-43c0-3.867187-3.132812-7-7-7-3.863281 0-7 3.132813-7 7v43h-43c-3.863281 0-7 3.132813-7 7 0 3.867188 3.136719 7 7 7zm0 0"/></svg>