<svg id="Capa_1" enable-background="new 0 0 512 512" height="512" viewBox="0 0 512 512" width="512" xmlns="http://www.w3.org/2000/svg"><g><g><path d="m502 25.18 10 69.82v401.82c0 8.38-6.9 15.18-15.42 15.18h-481.16c-8.52 0-15.42-6.8-15.42-15.18v-361.82l10-109.82c0-8.38 6.9-15.18 15.42-15.18h461.16c8.52 0 15.42 6.8 15.42 15.18z" fill="#f0f7ff"/></g><path d="m512 95v401.82c0 8.38-6.9 15.18-15.42 15.18h-179.3v-502h169.3c8.52 0 15.42 6.8 15.42 15.18z" fill="#dfe7f4"/><g><path d="m457 452h-279.44c-11.538 0-18.754-12.521-12.99-22.5l139.72-242c2.68-4.64 7.63-7.5 12.99-7.5.17 0 .35 0 .52.02 5.16.17 9.88 2.99 12.47 7.48l139.72 242c5.771 9.992-1.467 22.5-12.99 22.5z" fill="#fabe2c"/></g><path d="m469.99 429.5c5.771 9.992-1.467 22.5-12.99 22.5h-139.72v-272c.17 0 .35 0 .52.02 5.16.17 9.88 2.99 12.47 7.48z" fill="#ff9100"/><g><path d="m199.467 210h-134.467c-8.284 0-15-6.716-15-15s6.716-15 15-15h134.467c8.284 0 15 6.716 15 15s-6.716 15-15 15z" fill="#4793ff"/></g><g><path d="m135 270h-70c-8.284 0-15-6.716-15-15s6.716-15 15-15h70c8.284 0 15 6.716 15 15s-6.716 15-15 15z" fill="#4793ff"/></g><g><path d="m135 330h-70c-8.284 0-15-6.716-15-15s6.716-15 15-15h70c8.284 0 15 6.716 15 15s-6.716 15-15 15z" fill="#4793ff"/></g><path d="m512 15.18v79.82h-217.64c-11.89 0-23.42 4.04-32.69 11.47l-19.34 15.46c-10.57 8.46-23.71 13.07-37.25 13.07h-205.08v-119.82c0-8.38 6.9-15.18 15.42-15.18h481.16c8.52 0 15.42 6.8 15.42 15.18z" fill="#5e54ac"/><g><g><circle cx="65" cy="67.5" fill="#8bbc43" r="15"/></g></g><g><circle cx="125" cy="67.5" fill="#ffe14d" r="15"/></g><g><circle cx="185" cy="67.5" fill="#df5ccb" r="15"/></g><g><g><g><g><path d="m332.28 271.69v65.31c0 8.28-6.71 15-15 15-8.28 0-15-6.72-15-15v-65.31c0-8.28 6.72-15 15-15 8.29 0 15 6.72 15 15z" fill="#5e54ac"/></g></g></g><g><g><g><circle cx="317.28" cy="397" fill="#5e54ac" r="15"/></g></g></g><g fill="#453d81"><path d="m332.28 397c0 8.28-6.71 15-15 15v-30c8.29 0 15 6.71 15 15z"/><path d="m332.28 271.69v65.31c0 8.28-6.71 15-15 15v-95.31c8.29 0 15 6.72 15 15z"/></g></g><path d="m512 15.18v79.82h-194.72v-95h179.3c8.52 0 15.42 6.8 15.42 15.18z" fill="#453d81"/></g></svg>